<svg width="33" height="12" viewBox="0 0 33 12" fill="none" xmlns="http://www.w3.org/2000/svg">
<path d="M0.00426134 11H6.66619V9.45384H1.84872V6.67472H6.28338V5.12855H1.84872V2.36435H6.62642V0.818182H0.00426134V11ZM8.42862 11H10.2283V6.51065C10.2283 5.54119 10.9592 4.85511 11.9485 4.85511C12.2518 4.85511 12.6296 4.9098 12.7837 4.95952V3.30398C12.6197 3.27415 12.3363 3.25426 12.1374 3.25426C11.2624 3.25426 10.5316 3.75142 10.2532 4.63636H10.1737V3.36364H8.42862V11ZM13.9794 11H15.7791V6.51065C15.7791 5.54119 16.5099 4.85511 17.4993 4.85511C17.8026 4.85511 18.1804 4.9098 18.3345 4.95952V3.30398C18.1705 3.27415 17.8871 3.25426 17.6882 3.25426C16.8132 3.25426 16.0824 3.75142 15.804 4.63636H15.7244V3.36364H13.9794V11ZM22.5467 11.1491C24.7839 11.1491 26.2058 9.57315 26.2058 7.21165C26.2058 4.84517 24.7839 3.2642 22.5467 3.2642C20.3095 3.2642 18.8876 4.84517 18.8876 7.21165C18.8876 9.57315 20.3095 11.1491 22.5467 11.1491ZM22.5566 9.70739C21.3187 9.70739 20.7122 8.60369 20.7122 7.20668C20.7122 5.80966 21.3187 4.69105 22.5566 4.69105C23.7747 4.69105 24.3812 5.80966 24.3812 7.20668C24.3812 8.60369 23.7747 9.70739 22.5566 9.70739ZM27.7333 11H29.533V6.51065C29.533 5.54119 30.2638 4.85511 31.2532 4.85511C31.5565 4.85511 31.9343 4.9098 32.0884 4.95952V3.30398C31.9244 3.27415 31.641 3.25426 31.4421 3.25426C30.5671 3.25426 29.8363 3.75142 29.5579 4.63636H29.4783V3.36364H27.7333V11Z" fill="#D1D5DB"/>
</svg>
